<?xml version="1.0" encoding="UTF-8" standalone="no"?>
<!DOCTYPE svg PUBLIC "-//W3C//DTD SVG 1.1//EN" "http://www.w3.org/Graphics/SVG/1.1/DTD/svg11.dtd">
<svg width="100%" height="100%" viewBox="0 0 422 422" version="1.1" xmlns="http://www.w3.org/2000/svg" xmlns:xlink="http://www.w3.org/1999/xlink" xml:space="preserve" xmlns:serif="http://www.serif.com/" style="fill-rule:evenodd;clip-rule:evenodd;stroke-linejoin:round;stroke-miterlimit:2;">
    <g transform="matrix(3.125,0,0,3.125,0,0)">
        <g transform="matrix(1,0,0,1,-522.428,-498.325)">
            <g transform="matrix(1.01059,0,0,1.03424,484.796,10.7415)">
                <ellipse cx="104.031" cy="536.705" rx="66.793" ry="65.265" style="fill:rgb(127,219,213);"/>
            </g>
            <g transform="matrix(0.109685,0,0,0.109685,420.562,327.606)">
                <path d="M1545.55,1765.36C1443.76,1765.36 1361.24,1859.67 1361.24,1976C1361.24,2092.33 1443.77,2186.63 1545.55,2186.64C1647.35,2186.64 1729.86,2092.32 1729.86,1976C1729.86,1859.68 1647.35,1765.36 1545.55,1765.36Z" style="fill:rgb(232,190,172);"/>
                <clipPath id="_clip1">
                    <path d="M1545.55,1765.36C1443.76,1765.36 1361.24,1859.67 1361.24,1976C1361.24,2092.33 1443.77,2186.63 1545.55,2186.64C1647.35,2186.64 1729.86,2092.32 1729.86,1976C1729.86,1859.68 1647.35,1765.36 1545.55,1765.36Z"/>
                </clipPath>
                <g clip-path="url(#_clip1)">
                    <path d="M1660.71,1941.61C1573.71,2004.24 1504.79,2080.23 1456.79,2160.63C1483.12,2177.2 1513.37,2186.64 1545.55,2186.64C1647.35,2186.64 1729.86,2092.32 1729.86,1976C1729.86,1950.56 1725.92,1926.18 1718.69,1903.61C1699.1,1915.26 1679.73,1927.91 1660.71,1941.61Z" style="fill:rgb(226,172,148);"/>
                </g>
                <path d="M1545.55,1742.57C1432.06,1742.57 1338.45,1846.3 1338.45,1976C1338.45,2105.7 1432.07,2209.42 1545.55,2209.43C1545.55,2209.43 1545.55,2209.43 1545.55,2209.43C1659.05,2209.43 1752.65,2105.69 1752.65,1976C1752.65,1846.31 1659.05,1742.57 1545.55,1742.57ZM1545.55,1765.36C1443.76,1765.36 1361.24,1859.67 1361.24,1976C1361.24,2092.33 1443.77,2186.63 1545.55,2186.64C1647.35,2186.64 1729.86,2092.32 1729.86,1976C1729.86,1859.68 1647.35,1765.36 1545.55,1765.36Z"/>
                <g transform="matrix(1,0,0,1,19.4634,-13.7095)">
                    <path d="M1308.59,2305.11L1308.58,2384.12C1308.58,2449.54 1366.45,2502.58 1437.84,2502.58L1455.68,2502.59L1480.06,2229.02C1453.91,2220.6 1429.62,2207.31 1407.98,2190.14C1351.06,2202.54 1308.59,2249.14 1308.59,2305.11Z" style="fill:rgb(255,107,107);"/>
                    <clipPath id="_clip2">
                        <path d="M1308.59,2305.11L1308.58,2384.12C1308.58,2449.54 1366.45,2502.58 1437.84,2502.58L1455.68,2502.59L1480.06,2229.02C1453.91,2220.6 1429.62,2207.31 1407.98,2190.14C1351.06,2202.54 1308.59,2249.14 1308.59,2305.11Z"/>
                    </clipPath>
                    <g clip-path="url(#_clip2)">
                        <path d="M1384.93,2492.23C1401.08,2498.88 1418.99,2502.58 1437.84,2502.58L1455.68,2502.59L1480.06,2229.02C1463.11,2223.56 1446.94,2216.06 1431.77,2206.78C1384.79,2302.98 1367.58,2402.96 1384.93,2492.23Z" style="fill:rgb(255,81,81);"/>
                    </g>
                    <path d="M1285.8,2305.11L1285.79,2384.12C1285.79,2461.56 1353.34,2525.37 1437.84,2525.37C1437.83,2525.37 1455.67,2525.38 1455.67,2525.38C1467.48,2525.39 1477.33,2516.38 1478.38,2504.61L1502.76,2231.04C1503.71,2220.44 1497.18,2210.59 1487.05,2207.32C1463.5,2199.74 1441.63,2187.75 1422.15,2172.28C1416.79,2168.03 1409.81,2166.41 1403.13,2167.87C1335.5,2182.6 1285.8,2238.61 1285.8,2305.11L1285.8,2305.11ZM1308.59,2305.11L1308.58,2384.12C1308.58,2449.54 1366.45,2502.58 1437.84,2502.58L1455.68,2502.59L1480.06,2229.02C1453.91,2220.6 1429.62,2207.31 1407.98,2190.14C1351.06,2202.54 1308.59,2249.14 1308.59,2305.11Z"/>
                </g>
                <g transform="matrix(1,0,0,1,-22.3676,-16.8111)">
                    <path d="M1683.13,2190.14C1661.24,2207.52 1636.63,2220.93 1610.13,2229.32L1634.48,2502.6L1653.27,2502.6C1724.65,2502.6 1782.53,2449.53 1782.53,2384.1L1782.52,2305.12C1782.52,2249.14 1740.05,2202.54 1683.13,2190.14Z" style="fill:rgb(255,107,107);"/>
                    <path d="M1687.98,2167.87C1681.3,2166.41 1674.31,2168.04 1668.96,2172.29C1649.25,2187.94 1627.11,2200.04 1603.25,2207.59C1593.06,2210.82 1586.48,2220.69 1587.43,2231.34L1611.78,2504.62C1612.83,2516.38 1622.68,2525.39 1634.48,2525.39L1653.27,2525.39C1737.76,2525.39 1805.32,2461.55 1805.32,2384.1L1805.31,2305.12C1805.31,2238.61 1755.61,2182.6 1687.98,2167.87ZM1683.13,2190.14C1661.24,2207.52 1636.63,2220.93 1610.13,2229.32L1634.48,2502.6L1653.27,2502.6C1724.65,2502.6 1782.53,2449.53 1782.53,2384.1L1782.52,2305.12C1782.52,2249.14 1740.05,2202.54 1683.13,2190.14Z"/>
                </g>
                <g transform="matrix(1,0,0,0.9559,1.41978,72.1959)">
                    <path d="M1515.38,2238.5L1496.32,2583.92L1545.14,2621.76L1593.85,2583.94L1564.62,2238.45C1551.63,2239.61 1528.37,2239.72 1515.38,2238.5Z" style="fill:rgb(255,230,109);"/>
                    <path d="M1517.42,2214.75C1511.27,2214.17 1505.17,2216.23 1500.49,2220.44C1495.82,2224.66 1492.98,2230.68 1492.63,2237.12L1473.57,2582.55C1473.12,2590.57 1476.58,2598.29 1482.75,2603.08L1531.57,2640.92C1539.64,2647.17 1550.66,2647.16 1558.72,2640.91L1607.43,2603.09C1613.8,2598.14 1617.25,2590.1 1616.55,2581.84L1587.32,2236.35C1586.22,2223.26 1575.2,2213.58 1562.68,2214.69C1550.74,2215.76 1529.36,2215.87 1517.42,2214.75ZM1515.38,2238.5L1496.32,2583.92L1545.14,2621.76L1593.85,2583.94L1564.62,2238.45C1551.63,2239.61 1528.37,2239.72 1515.38,2238.5Z"/>
                </g>
            </g>
        </g>
    </g>
</svg>
