<?xml version="1.0" encoding="UTF-8" standalone="no"?>
<!DOCTYPE svg PUBLIC "-//W3C//DTD SVG 1.1//EN" "http://www.w3.org/Graphics/SVG/1.1/DTD/svg11.dtd">
<svg width="100%" height="100%" viewBox="0 0 900 600" version="1.1" xmlns="http://www.w3.org/2000/svg" xmlns:xlink="http://www.w3.org/1999/xlink" xml:space="preserve" xmlns:serif="http://www.serif.com/" style="fill-rule:evenodd;clip-rule:evenodd;stroke-linecap:round;stroke-linejoin:round;stroke-miterlimit:1.5;">
    <g id="Laptop" transform="matrix(2.37302,0,0,2.1981,-401.422,-46.429)">
        <g transform="matrix(1,0,0,1,4.39882,-0.109335)">
            <path d="M281.309,140.773L256.066,140.773L256.066,141.201C256.066,141.9 256.592,142.468 257.239,142.468L280.098,142.468C280.767,142.468 281.309,141.882 281.309,141.16L281.309,140.773Z" style="fill:rgb(147,147,147);"/>
        </g>
        <g transform="matrix(0.371752,0,0,0.404466,177.188,31.9389)">
            <path d="M464.785,33.894C464.785,26.864 459.033,21.156 451.949,21.156L64.897,21.156C57.812,21.156 52.06,26.864 52.06,33.894L52.06,256.059C52.06,263.089 57.812,268.796 64.897,268.796L451.949,268.796C459.033,268.796 464.785,263.089 464.785,256.059L464.785,33.894Z" style="fill:rgb(41,47,54);"/>
            <path d="M476.593,33.894C476.593,20.397 465.55,9.44 451.949,9.44L64.897,9.44C51.295,9.44 40.252,20.397 40.252,33.894C40.252,33.894 40.252,256.059 40.252,256.059C40.252,269.555 51.295,280.513 64.897,280.513C64.897,280.513 451.949,280.513 451.949,280.513C465.55,280.513 476.593,269.555 476.593,256.059C476.593,256.059 476.593,33.894 476.593,33.894ZM464.785,33.894C464.785,26.864 459.033,21.156 451.949,21.156L64.897,21.156C57.812,21.156 52.06,26.864 52.06,33.894L52.06,256.059C52.06,263.089 57.812,268.796 64.897,268.796L451.949,268.796C459.033,268.796 464.785,263.089 464.785,256.059L464.785,33.894Z" style="fill:rgb(41,47,54);"/>
        </g>
        <g transform="matrix(0.355616,0,0,0.377025,173.554,31.585)">
            <path d="M483.985,45.28C483.985,39.999 479.774,35.711 474.588,35.711L86.919,35.711C81.732,35.711 77.522,39.999 77.522,45.28L77.522,269.548C77.522,274.829 81.732,279.117 86.919,279.117L474.588,279.117C479.774,279.117 483.985,274.829 483.985,269.548L483.985,45.28Z" style="fill:url(#_Linear1);"/>
            <path d="M496.329,45.28C496.329,33.062 486.587,23.142 474.588,23.142L86.919,23.142C74.92,23.142 65.178,33.062 65.178,45.28L65.178,269.548C65.178,281.766 74.92,291.686 86.919,291.686L474.588,291.686C486.587,291.686 496.329,281.766 496.329,269.548C496.329,269.548 496.329,45.28 496.329,45.28ZM483.985,45.28C483.985,39.999 479.774,35.711 474.588,35.711L86.919,35.711C81.732,35.711 77.522,39.999 77.522,45.28L77.522,269.548C77.522,274.829 81.732,279.117 86.919,279.117L474.588,279.117C479.774,279.117 483.985,274.829 483.985,269.548L483.985,45.28Z" style="fill:url(#_Linear2);"/>
        </g>
        <g transform="matrix(1,0,0,0.978067,0,0.988061)">
            <path d="M345.666,49.641C345.666,47.107 343.802,45.049 341.506,45.049L205.282,45.049C202.986,45.049 201.121,47.107 201.121,49.641L201.121,135.797C201.121,138.331 202.986,140.389 205.282,140.389L341.506,140.389C343.802,140.389 345.666,138.331 345.666,135.797L345.666,49.641Z" style="fill:rgb(239,239,239);"/>
        </g>
        <g transform="matrix(0.421505,1.57534e-17,-7.231e-19,-0.0161748,162.882,145.005)">
            <path d="M475.2,61.807L475.203,263.223L475.061,287.198C474.524,377.931 472.74,450.79 470.24,499.6C467.819,546.864 464.69,561.779 463.279,561.779L53.573,561.779C51.123,561.779 45.669,531.044 42.822,377.184L41.646,313.592L41.646,-183.412L50.229,-226.527C50.529,-228.03 53.891,-251.145 55.046,-258.377C54.989,-258.018 62.129,-305.648 62.129,-305.648L452.955,-312.648L461.234,-257.6L458.839,-265.455C459.289,-265.455 465.883,-232.715 467.19,-223.386C475.141,-166.623 475.2,49.212 475.2,61.956L475.2,61.807ZM464.785,61.956C464.785,60.335 459.187,27.528 458.839,27.528L451.745,-19.643L63.35,-12.687L57.327,27.492C56.105,35.103 52.388,60.249 52.06,61.896L52.06,241.901C52.464,263.771 53.225,268.796 53.573,268.796L463.279,268.796C463.628,268.796 464.66,260.755 464.789,239.066L464.785,61.956Z" style="fill:rgb(41,47,54);"/>
        </g>
        <g transform="matrix(1.11953,0,0,0.546191,-34.1744,65.1007)">
            <path d="M351.01,139.701C351.01,138.947 350.733,138.334 350.392,138.334L196.235,138.334C195.894,138.334 195.617,138.947 195.617,139.701L195.617,146.876L351.01,146.876L351.01,139.701Z" style="fill:url(#_Linear3);"/>
        </g>
        <g transform="matrix(0.377214,0,0,0.407231,143.024,-31.1796)">
            <path d="M329.909,187.188L465.848,187.188L410.937,411.424L263.427,410.842L329.909,187.188Z" style="fill:white;fill-opacity:0.5;"/>
        </g>
    </g>
    <g transform="matrix(1.34873,0,0,1.34873,-21.2751,259.002)">
        <g>
            <g transform="matrix(1.14924,0,0,1.09093,-81.237,7.0352)">
                <path d="M556.642,198.055C550.59,198.418 509.367,198.806 493.209,198.055C503.154,191.449 509.067,166.417 509.067,166.417L540.784,166.417C540.784,166.417 544.994,186.945 556.642,198.055Z" style="fill:rgb(78,205,196);stroke:rgb(41,47,54);stroke-width:6.89px;"/>
            </g>
            <g transform="matrix(0.59307,0,0,0.60258,138.239,-96.2262)">
                <path d="M888.242,222.107C888.242,203.958 873.271,189.223 854.831,189.223C854.831,189.223 452.983,189.223 452.983,189.223C434.543,189.223 419.572,203.958 419.572,222.107C419.572,222.107 419.572,474.493 419.572,474.493C419.572,487.312 430.147,497.719 443.171,497.719L864.76,497.719C877.72,497.719 888.242,487.364 888.242,474.608C888.242,474.608 888.242,222.107 888.242,222.107ZM875.219,222.107C875.219,211.032 866.084,202.04 854.831,202.04L452.983,202.04C441.731,202.04 432.595,211.032 432.595,222.107L432.595,474.493C432.595,480.238 437.334,484.902 443.171,484.902L864.76,484.902C870.533,484.902 875.219,480.29 875.219,474.608L875.219,222.107Z" style="fill:rgb(41,47,54);"/>
            </g>
            <g transform="matrix(0.990952,0,0,0.599848,2.08441,82.714)">
                <path d="M661.204,157.571L396.3,157.571L396.3,180.994C396.3,185.303 398.417,188.802 401.026,188.802L656.478,188.802C659.086,188.802 661.204,185.303 661.204,180.994L661.204,157.571Z" style="fill:url(#_Linear4);"/>
            </g>
            <g transform="matrix(0.605043,0,0,0.605043,133.06,-97.4203)">
                <path d="M868.229,223.352C868.229,211.19 858.355,201.316 846.193,201.316C846.193,201.316 452.792,201.316 452.792,201.316C440.63,201.316 430.757,211.19 430.757,223.352L430.757,458.216L868.229,458.216L868.229,223.352ZM858.017,223.352C858.017,216.826 852.719,211.528 846.193,211.528L452.792,211.528C446.267,211.528 440.968,216.826 440.968,223.352L440.968,448.004L858.017,448.004L858.017,223.352Z" style="fill:url(#_Linear5);"/>
            </g>
            <g transform="matrix(0.382554,0,0,0.733666,353.931,29.6992)">
                <path d="M780.285,10.928C780.285,5.547 771.906,1.177 761.585,1.177L138.771,1.177C128.45,1.177 120.071,5.547 120.071,10.928L120.071,186.445C120.071,191.826 128.45,196.196 138.771,196.196L761.585,196.196C771.906,196.196 780.285,191.826 780.285,186.445L780.285,10.928Z" style="fill:rgb(238,238,238);"/>
            </g>
            <g transform="matrix(0.605043,0,0,0.611194,133.06,-98.7208)">
                <path d="M627.818,445.623L772.894,445.623L858.406,300C858.406,300 858.513,281.228 858.406,261.796C858.317,245.691 858.415,229.303 858.406,222.462C858.402,219.222 854.833,211.609 847.235,211.528C829.69,211.34 764.647,211.528 764.647,211.528L627.818,445.623Z" style="fill:white;fill-opacity:0.5;"/>
            </g>
            <g transform="matrix(0.605043,0,0,0.611196,133.06,-98.7218)">
                <path d="M568.468,445.623L692.697,211.528L627.818,211.528L504.539,445.623L568.468,445.623Z" style="fill:white;fill-opacity:0.5;"/>
            </g>
        </g>
    </g>
    <path d="M753.777,241.268C694.933,148.365 541.032,129.257 541.032,129.257L548.318,96.209L473.913,126.109L526.397,193.704L534.401,153.973C534.401,153.973 547.499,156.005 561.983,157.796C603.217,162.895 693.093,180.989 730.37,240.265C736.368,249.802 741.996,257.297 744.983,257.801C756.613,259.766 760.088,251.232 753.777,241.268Z"/>
    <g transform="matrix(-1,0,0,-1,898.68,626.969)">
        <path d="M753.777,241.268C694.933,148.365 541.032,129.257 541.032,129.257L548.318,96.209L465.766,123.376L526.397,193.704L534.401,153.973C534.401,153.973 547.499,156.005 561.983,157.796C603.217,162.895 693.093,180.989 730.37,240.265C736.368,249.802 741.996,257.297 744.983,257.801C756.613,259.766 760.088,251.232 753.777,241.268Z"/>
    </g>
    <defs>
        <linearGradient id="_Linear1" x1="0" y1="0" x2="1" y2="0" gradientUnits="userSpaceOnUse" gradientTransform="matrix(406.463,0,0,243.406,77.5216,157.414)"><stop offset="0" style="stop-color:rgb(255,107,107);stop-opacity:1"/><stop offset="1" style="stop-color:rgb(78,205,196);stop-opacity:1"/></linearGradient>
        <linearGradient id="_Linear2" x1="0" y1="0" x2="1" y2="0" gradientUnits="userSpaceOnUse" gradientTransform="matrix(406.463,0,0,243.406,77.5216,157.414)"><stop offset="0" style="stop-color:rgb(255,107,107);stop-opacity:1"/><stop offset="1" style="stop-color:rgb(78,205,196);stop-opacity:1"/></linearGradient>
        <linearGradient id="_Linear3" x1="0" y1="0" x2="1" y2="0" gradientUnits="userSpaceOnUse" gradientTransform="matrix(155.743,0,0,4.66544,195.279,144.074)"><stop offset="0" style="stop-color:rgb(255,107,107);stop-opacity:1"/><stop offset="1" style="stop-color:rgb(255,230,109);stop-opacity:1"/></linearGradient>
        <linearGradient id="_Linear4" x1="0" y1="0" x2="1" y2="0" gradientUnits="userSpaceOnUse" gradientTransform="matrix(264.904,0,0,31.2313,396.3,173.186)"><stop offset="0" style="stop-color:rgb(255,107,107);stop-opacity:1"/><stop offset="1" style="stop-color:rgb(78,205,196);stop-opacity:1"/></linearGradient>
        <linearGradient id="_Linear5" x1="0" y1="0" x2="1" y2="0" gradientUnits="userSpaceOnUse" gradientTransform="matrix(417.048,0,0,236.476,440.968,329.766)"><stop offset="0" style="stop-color:rgb(255,107,107);stop-opacity:1"/><stop offset="1" style="stop-color:rgb(78,205,196);stop-opacity:1"/></linearGradient>
    </defs>
</svg>
