<?xml version="1.0" encoding="UTF-8" standalone="no"?>
<!DOCTYPE svg PUBLIC "-//W3C//DTD SVG 1.1//EN" "http://www.w3.org/Graphics/SVG/1.1/DTD/svg11.dtd">
<svg width="100%" height="100%" viewBox="0 0 422 422" version="1.1" xmlns="http://www.w3.org/2000/svg" xmlns:xlink="http://www.w3.org/1999/xlink" xml:space="preserve" xmlns:serif="http://www.serif.com/" style="fill-rule:evenodd;clip-rule:evenodd;stroke-miterlimit:1.5;">
    <g transform="matrix(3.125,0,0,3.125,0,0)">
        <g transform="matrix(1,0,0,1,-362.195,-488.574)">
            <g transform="matrix(1.01059,0,0,1.03424,324.564,0.989637)">
                <ellipse cx="104.031" cy="536.705" rx="66.793" ry="65.265" style="fill:rgb(127,219,213);"/>
            </g>
            <g transform="matrix(1,0,0,1,-4.54055,2.08968)">
                <g transform="matrix(1,0,0,1,1.00572,2.61118)">
                    <path d="M470.347,533.681C470.347,526.37 464.411,520.434 457.099,520.434L408.269,520.434C400.957,520.434 395.021,526.37 395.021,533.681L395.021,560.177C395.021,567.488 400.957,573.425 408.269,573.425L419.502,573.425L422.503,591.713L430.801,573.425L457.099,573.425C464.411,573.425 470.347,567.488 470.347,560.177L470.347,533.681Z" style="fill:rgb(255,107,107);stroke:black;stroke-width:2.5px;"/>
                </g>
                <g transform="matrix(0.980812,0,0,0.955531,9.31415,26.7948)">
                    <path d="M422.865,589.454L422.387,586.416L428.34,573.476L430.032,573.487L425.53,583.542L422.865,589.454ZM404.101,521.104C404.761,521.003 405.437,520.95 406.126,520.95L454.956,520.95C462.268,520.95 468.204,526.886 468.204,534.198L468.204,560.693C468.204,566.549 464.396,571.522 459.124,573.27C465.477,572.294 470.347,566.8 470.347,560.177L470.347,533.681C470.347,526.37 464.411,520.434 457.099,520.434L408.269,520.434C406.813,520.434 405.412,520.669 404.101,521.104Z" style="fill-opacity:0.25;"/>
                </g>
                <g transform="matrix(1,0,0,1,6.9035,21.729)">
                    <path d="M425.813,537.483L425.813,533.739C425.813,532.747 425.933,531.955 426.173,531.363C426.413,530.771 426.741,530.267 427.157,529.851C427.605,529.467 428.085,529.115 428.597,528.795C429.109,528.475 429.653,528.107 430.229,527.691C431.669,526.667 432.813,525.499 433.661,524.187C434.509,522.875 434.933,521.339 434.933,519.579C434.933,518.299 434.693,517.091 434.213,515.955C433.733,514.819 433.061,513.835 432.197,513.003C431.365,512.139 430.373,511.459 429.221,510.963C428.069,510.467 426.837,510.219 425.525,510.219C424.245,510.219 423.101,510.419 422.093,510.819C421.085,511.219 420.197,511.723 419.429,512.331C418.693,512.971 418.069,513.699 417.557,514.515C417.045,515.331 416.645,516.155 416.357,516.987C416.645,517.083 416.941,517.179 417.245,517.275C417.549,517.371 417.829,517.467 418.085,517.563C418.341,516.795 418.677,516.091 419.093,515.451C419.509,514.811 420.005,514.267 420.581,513.819C421.221,513.275 421.949,512.859 422.765,512.571C423.581,512.283 424.501,512.139 425.525,512.139C426.549,512.139 427.517,512.323 428.429,512.691C429.341,513.059 430.117,513.579 430.757,514.251C431.429,514.891 431.957,515.667 432.341,516.579C432.725,517.491 432.917,518.491 432.917,519.579C432.917,520.763 432.677,521.875 432.197,522.915C431.717,523.955 430.949,524.907 429.893,525.771C429.125,526.379 428.381,526.915 427.661,527.379C426.941,527.843 426.293,528.299 425.717,528.747C425.141,529.227 424.677,529.779 424.325,530.403C423.973,531.027 423.797,531.835 423.797,532.827L423.797,537.483L425.813,537.483ZM426.341,543.051C426.341,542.603 426.181,542.227 425.861,541.923C425.541,541.619 425.189,541.467 424.805,541.467C424.421,541.467 424.069,541.619 423.749,541.923C423.429,542.227 423.269,542.603 423.269,543.051C423.269,543.499 423.429,543.875 423.749,544.179C424.069,544.483 424.421,544.635 424.805,544.635C425.189,544.635 425.541,544.483 425.861,544.179C426.181,543.875 426.341,543.499 426.341,543.051Z" style="fill:white;fill-rule:nonzero;stroke:white;stroke-width:2.95px;stroke-linejoin:round;stroke-miterlimit:2;"/>
                </g>
            </g>
        </g>
    </g>
</svg>
