<?xml version="1.0" encoding="UTF-8" standalone="no"?>
<!DOCTYPE svg PUBLIC "-//W3C//DTD SVG 1.1//EN" "http://www.w3.org/Graphics/SVG/1.1/DTD/svg11.dtd">
<svg width="100%" height="100%" viewBox="0 0 900 600" version="1.1" xmlns="http://www.w3.org/2000/svg" xmlns:xlink="http://www.w3.org/1999/xlink" xml:space="preserve" xmlns:serif="http://www.serif.com/" style="fill-rule:evenodd;clip-rule:evenodd;stroke-linecap:round;stroke-linejoin:round;stroke-miterlimit:1.5;">
    <g transform="matrix(3.13645,-1.96407e-05,1.96407e-05,3.13645,-2197.16,-5.3352)">
        <g transform="matrix(0.00302835,0.924992,-0.933274,0.00305547,819.005,-471.763)">
            <path d="M698.763,60.685C698.763,54.71 693.868,49.858 687.84,49.858L537.587,49.858C531.559,49.858 526.664,54.71 526.664,60.685L526.664,104.313C526.664,110.289 531.559,115.14 537.587,115.14C537.587,115.14 687.84,115.14 687.84,115.14C693.868,115.14 698.763,110.289 698.763,104.313C698.763,104.313 698.763,60.685 698.763,60.685ZM695.173,60.685C695.173,56.674 691.887,53.417 687.84,53.417L537.587,53.417C533.54,53.417 530.255,56.674 530.255,60.685L530.255,104.313C530.255,108.325 533.54,111.581 537.587,111.581L687.84,111.581C691.887,111.581 695.173,108.325 695.173,104.313L695.173,60.685Z"/>
        </g>
        <g transform="matrix(1,4.33681e-19,0,0.818238,1.13687e-13,30.583)">
            <path d="M727.782,169.612C727.782,168.865 727.286,168.259 726.675,168.259L723.583,168.259C722.972,168.259 722.476,168.865 722.476,169.612L722.476,172.317C722.476,173.064 722.972,173.67 723.583,173.67L726.675,173.67C727.286,173.67 727.782,173.064 727.782,172.317L727.782,169.612Z" style="fill:white;"/>
        </g>
        <g transform="matrix(1,0,0,0.794258,38.526,34.6179)">
            <path d="M727.782,169.612C727.782,168.865 727.301,168.259 726.708,168.259L723.55,168.259C722.957,168.259 722.476,168.865 722.476,169.612L722.476,172.317C722.476,173.064 722.957,173.67 723.55,173.67L726.708,173.67C727.301,173.67 727.782,173.064 727.782,172.317L727.782,169.612Z" style="fill:white;"/>
        </g>
        <g transform="matrix(1,0,-8.92262e-20,0.469181,38.542,94.198)">
            <path d="M727.782,169.612C727.782,168.865 727.498,168.259 727.147,168.259L723.111,168.259C722.76,168.259 722.476,168.865 722.476,169.612L722.476,172.317C722.476,173.064 722.76,173.67 723.111,173.67L727.147,173.67C727.498,173.67 727.782,173.064 727.782,172.317L727.782,169.612Z"/>
        </g>
        <g transform="matrix(1,4.33681e-19,-2.1684e-19,0.469181,-0.000738683,94.3242)">
            <path d="M727.782,169.612C727.782,168.865 727.498,168.259 727.147,168.259L723.111,168.259C722.76,168.259 722.476,168.865 722.476,169.612L722.476,172.317C722.476,173.064 722.76,173.67 723.111,173.67L727.147,173.67C727.498,173.67 727.782,173.064 727.782,172.317L727.782,169.612Z"/>
        </g>
        <path d="M770.999,24.703C770.999,21.578 768.461,19.04 765.335,19.04L722.384,19.04C719.258,19.04 716.72,21.578 716.72,24.703L716.72,165.785C716.72,168.911 719.258,171.448 722.384,171.448L765.335,171.448C768.461,171.448 770.999,168.911 770.999,165.785L770.999,24.703Z" style="fill:url(#_Linear1);"/>
        <g transform="matrix(2.49278,0,0,3.8232,-1073.63,-68.0349)">
            <path d="M738.805,23.853C738.805,23.681 738.591,23.542 738.327,23.542L719.695,23.542C719.432,23.542 719.217,23.681 719.217,23.853L719.217,60.044C719.217,60.216 719.432,60.355 719.695,60.355L738.327,60.355C738.591,60.355 738.805,60.216 738.805,60.044L738.805,23.853Z" style="fill:white;fill-opacity:0.75;"/>
        </g>
        <g transform="matrix(1,0,0,0.972518,0.00156963,0.270419)">
            <g transform="matrix(1,0,0,4.18939,0.0187525,-13.256)">
                <path d="M758.708,24.819C758.708,24.719 758.375,24.637 757.965,24.637L729.258,24.637C728.848,24.637 728.515,24.719 728.515,24.819L728.515,41.351C728.515,41.452 728.848,41.534 729.258,41.534L757.965,41.534C758.375,41.534 758.708,41.452 758.708,41.351L758.708,24.819Z" style="fill:rgb(255,107,107);fill-opacity:0.52;"/>
            </g>
            <g transform="matrix(1,0,0,3.27941,0.0560581,-53.5541)">
                <path d="M758.708,24.87C758.708,24.741 758.375,24.637 757.965,24.637L729.258,24.637C728.848,24.637 728.515,24.741 728.515,24.87L728.515,41.301C728.515,41.429 728.848,41.534 729.258,41.534L757.965,41.534C758.375,41.534 758.708,41.429 758.708,41.301L758.708,24.87Z" style="fill:rgb(255,107,107);fill-opacity:0.52;"/>
            </g>
        </g>
        <g transform="matrix(1,0,0,1,15.6574,-0.405094)">
            <ellipse cx="741.893" cy="167.288" rx="1.521" ry="1.501" style="fill:white;"/>
        </g>
        <g transform="matrix(1,0,0,1,19.7804,-0.430002)">
            <ellipse cx="741.893" cy="167.288" rx="1.521" ry="1.501" style="fill:white;"/>
        </g>
        <g transform="matrix(1,0,0,1,23.7481,-0.45491)">
            <ellipse cx="741.893" cy="167.288" rx="1.521" ry="1.501" style="fill:white;"/>
        </g>
    </g>
    <g id="Laptop" transform="matrix(2.65101,0,0,2.45561,-332.828,-26.4946)">
        <g transform="matrix(1,0,0,1,4.39882,-0.109335)">
            <path d="M281.309,140.773L256.066,140.773L256.066,141.201C256.066,141.9 256.592,142.468 257.239,142.468L280.098,142.468C280.767,142.468 281.309,141.882 281.309,141.16L281.309,140.773Z" style="fill:rgb(147,147,147);"/>
        </g>
        <g transform="matrix(0.371752,0,0,0.404466,177.188,31.9389)">
            <path d="M464.785,33.894C464.785,26.864 459.033,21.156 451.949,21.156L64.897,21.156C57.812,21.156 52.06,26.864 52.06,33.894L52.06,256.059C52.06,263.089 57.812,268.796 64.897,268.796L451.949,268.796C459.033,268.796 464.785,263.089 464.785,256.059L464.785,33.894Z" style="fill:rgb(41,47,54);"/>
            <path d="M475.355,33.894C475.355,21.075 464.867,10.668 451.949,10.668C451.949,10.668 64.897,10.668 64.897,10.668C51.978,10.668 41.49,21.075 41.49,33.894L41.49,256.059C41.49,268.877 51.978,279.284 64.897,279.284C64.897,279.284 451.949,279.284 451.949,279.284C464.867,279.284 475.355,268.877 475.355,256.059C475.355,256.059 475.355,33.894 475.355,33.894ZM464.785,33.894C464.785,26.864 459.033,21.156 451.949,21.156L64.897,21.156C57.812,21.156 52.06,26.864 52.06,33.894L52.06,256.059C52.06,263.089 57.812,268.796 64.897,268.796L451.949,268.796C459.033,268.796 464.785,263.089 464.785,256.059L464.785,33.894Z" style="fill:rgb(41,47,54);"/>
        </g>
        <g transform="matrix(0.355616,0,0,0.377025,173.554,31.585)">
            <path d="M483.985,45.28C483.985,39.999 479.774,35.711 474.588,35.711L86.919,35.711C81.732,35.711 77.522,39.999 77.522,45.28L77.522,269.548C77.522,274.829 81.732,279.117 86.919,279.117L474.588,279.117C479.774,279.117 483.985,274.829 483.985,269.548L483.985,45.28Z" style="fill:url(#_Linear2);"/>
            <path d="M495.034,45.28C495.034,33.789 485.873,24.46 474.588,24.46L86.919,24.46C75.634,24.46 66.472,33.789 66.472,45.28C66.472,45.28 66.472,269.548 66.472,269.548C66.472,281.039 75.634,290.368 86.919,290.368C86.919,290.368 474.588,290.368 474.588,290.368C485.873,290.368 495.034,281.039 495.034,269.548L495.034,45.28ZM483.985,45.28C483.985,39.999 479.774,35.711 474.588,35.711L86.919,35.711C81.732,35.711 77.522,39.999 77.522,45.28L77.522,269.548C77.522,274.829 81.732,279.117 86.919,279.117L474.588,279.117C479.774,279.117 483.985,274.829 483.985,269.548L483.985,45.28Z" style="fill:url(#_Linear3);"/>
        </g>
        <g transform="matrix(1,0,0,0.978067,0,0.988061)">
            <path d="M345.666,49.641C345.666,47.107 343.802,45.049 341.506,45.049L205.282,45.049C202.986,45.049 201.121,47.107 201.121,49.641L201.121,135.797C201.121,138.331 202.986,140.389 205.282,140.389L341.506,140.389C343.802,140.389 345.666,138.331 345.666,135.797L345.666,49.641Z" style="fill:rgb(239,239,239);"/>
        </g>
        <g transform="matrix(0.421505,1.57534e-17,-7.231e-19,-0.0161748,162.882,145.005)">
            <path d="M474.108,61.822L474.111,260.69L473.984,282.151C473.498,364.278 471.88,430.179 469.617,474.36C467.413,517.401 464.564,531.056 463.279,531.056L53.573,531.056C51.343,531.056 46.382,503.017 43.791,362.997L42.738,306.074L42.738,-157.688L50.421,-196.281C50.725,-197.805 54.146,-221.284 55.297,-228.472C55.234,-228.079 62.257,-274.927 62.257,-274.927L452.828,-281.922L460.983,-227.7L458.839,-234.732C459.275,-234.732 465.656,-202.638 466.921,-193.606C474.048,-142.733 474.108,50.534 474.108,61.956L474.108,61.822ZM464.785,61.956C464.785,60.335 459.187,27.528 458.839,27.528L451.745,-19.643L63.35,-12.687L57.327,27.492C56.105,35.103 52.388,60.249 52.06,61.896L52.06,241.901C52.464,263.771 53.225,268.796 53.573,268.796L463.279,268.796C463.628,268.796 464.66,260.755 464.789,239.066L464.785,61.956Z" style="fill:rgb(41,47,54);"/>
        </g>
        <g transform="matrix(1.11953,0,0,0.546191,-34.1744,65.1007)">
            <path d="M351.01,139.701C351.01,138.947 350.733,138.334 350.392,138.334L196.235,138.334C195.894,138.334 195.617,138.947 195.617,139.701L195.617,146.876L351.01,146.876L351.01,139.701Z" style="fill:url(#_Linear4);"/>
        </g>
        <g transform="matrix(0.377214,0,0,0.407231,143.024,-31.1796)">
            <path d="M329.909,187.188L465.848,187.188L410.937,411.424L263.427,410.842L329.909,187.188Z" style="fill:white;fill-opacity:0.5;"/>
        </g>
    </g>
    <g transform="matrix(1.65277,0,0,1.65277,-221.128,191.026)">
        <g>
            <g transform="matrix(1.14924,0,0,1.09093,-81.237,7.0352)">
                <path d="M556.642,198.055C550.59,198.418 509.367,198.806 493.209,198.055C503.154,191.449 509.067,166.417 509.067,166.417L540.784,166.417C540.784,166.417 544.994,186.945 556.642,198.055Z" style="fill:rgb(78,205,196);stroke:rgb(41,47,54);stroke-width:5.62px;"/>
            </g>
            <g transform="matrix(0.59307,0,0,0.60258,138.239,-96.2262)">
                <path d="M885.846,222.107C885.846,205.259 871.949,191.581 854.831,191.581L452.983,191.581C435.866,191.581 421.968,205.259 421.968,222.107C421.968,222.107 421.968,474.493 421.968,474.493C421.968,486.011 431.469,495.362 443.171,495.362C443.171,495.362 864.76,495.362 864.76,495.362C876.398,495.362 885.846,486.062 885.846,474.608C885.846,474.608 885.846,222.107 885.846,222.107ZM875.219,222.107C875.219,211.032 866.084,202.04 854.831,202.04L452.983,202.04C441.731,202.04 432.595,211.032 432.595,222.107L432.595,474.493C432.595,480.238 437.334,484.902 443.171,484.902L864.76,484.902C870.533,484.902 875.219,480.29 875.219,474.608L875.219,222.107Z" style="fill:rgb(41,47,54);"/>
            </g>
            <g transform="matrix(0.990952,0,0,0.599848,2.08441,82.714)">
                <path d="M661.204,157.571L396.3,157.571L396.3,180.994C396.3,185.303 398.417,188.802 401.026,188.802L656.478,188.802C659.086,188.802 661.204,185.303 661.204,180.994L661.204,157.571Z" style="fill:url(#_Linear5);"/>
            </g>
            <g transform="matrix(0.605043,0,0,0.605043,133.06,-97.4203)">
                <path d="M866.35,223.352C866.35,212.226 857.318,203.194 846.193,203.194C846.193,203.194 452.792,203.194 452.792,203.194C441.667,203.194 432.635,212.226 432.635,223.352C432.635,223.352 432.635,456.337 432.635,456.337L866.35,456.337L866.35,223.352ZM858.017,223.352C858.017,216.826 852.719,211.528 846.193,211.528L452.792,211.528C446.267,211.528 440.968,216.826 440.968,223.352L440.968,448.004L858.017,448.004L858.017,223.352Z" style="fill:url(#_Linear6);"/>
            </g>
            <g transform="matrix(0.382554,0,0,0.733666,353.931,29.6992)">
                <path d="M780.285,10.928C780.285,5.547 771.906,1.177 761.585,1.177L138.771,1.177C128.45,1.177 120.071,5.547 120.071,10.928L120.071,186.445C120.071,191.826 128.45,196.196 138.771,196.196L761.585,196.196C771.906,196.196 780.285,191.826 780.285,186.445L780.285,10.928Z" style="fill:rgb(238,238,238);"/>
            </g>
            <g transform="matrix(0.605043,0,0,0.611194,133.06,-98.7208)">
                <path d="M627.818,445.623L772.894,445.623L858.406,300C858.406,300 858.513,281.228 858.406,261.796C858.317,245.691 858.415,229.303 858.406,222.462C858.402,219.222 854.833,211.609 847.235,211.528C829.69,211.34 764.647,211.528 764.647,211.528L627.818,445.623Z" style="fill:white;fill-opacity:0.5;"/>
            </g>
            <g transform="matrix(0.605043,0,0,0.611196,133.06,-98.7218)">
                <path d="M568.468,445.623L692.697,211.528L627.818,211.528L504.539,445.623L568.468,445.623Z" style="fill:white;fill-opacity:0.5;"/>
            </g>
        </g>
    </g>
    <defs>
        <linearGradient id="_Linear1" x1="0" y1="0" x2="1" y2="0" gradientUnits="userSpaceOnUse" gradientTransform="matrix(54.279,0,0,152.409,716.72,95.2441)"><stop offset="0" style="stop-color:rgb(79,204,195);stop-opacity:1"/><stop offset="1" style="stop-color:rgb(255,230,109);stop-opacity:1"/></linearGradient>
        <linearGradient id="_Linear2" x1="0" y1="0" x2="1" y2="0" gradientUnits="userSpaceOnUse" gradientTransform="matrix(406.463,0,0,243.406,77.5216,157.414)"><stop offset="0" style="stop-color:rgb(255,107,107);stop-opacity:1"/><stop offset="1" style="stop-color:rgb(78,205,196);stop-opacity:1"/></linearGradient>
        <linearGradient id="_Linear3" x1="0" y1="0" x2="1" y2="0" gradientUnits="userSpaceOnUse" gradientTransform="matrix(406.463,0,0,243.406,77.5216,157.414)"><stop offset="0" style="stop-color:rgb(255,107,107);stop-opacity:1"/><stop offset="1" style="stop-color:rgb(78,205,196);stop-opacity:1"/></linearGradient>
        <linearGradient id="_Linear4" x1="0" y1="0" x2="1" y2="0" gradientUnits="userSpaceOnUse" gradientTransform="matrix(155.743,0,0,4.66544,195.279,144.074)"><stop offset="0" style="stop-color:rgb(255,107,107);stop-opacity:1"/><stop offset="1" style="stop-color:rgb(255,230,109);stop-opacity:1"/></linearGradient>
        <linearGradient id="_Linear5" x1="0" y1="0" x2="1" y2="0" gradientUnits="userSpaceOnUse" gradientTransform="matrix(264.904,0,0,31.2313,396.3,173.186)"><stop offset="0" style="stop-color:rgb(255,107,107);stop-opacity:1"/><stop offset="1" style="stop-color:rgb(78,205,196);stop-opacity:1"/></linearGradient>
        <linearGradient id="_Linear6" x1="0" y1="0" x2="1" y2="0" gradientUnits="userSpaceOnUse" gradientTransform="matrix(417.048,0,0,236.476,440.968,329.766)"><stop offset="0" style="stop-color:rgb(255,107,107);stop-opacity:1"/><stop offset="1" style="stop-color:rgb(78,205,196);stop-opacity:1"/></linearGradient>
    </defs>
</svg>
