<svg xmlns="http://www.w3.org/2000/svg" viewBox="0 0 600 600"><defs><style>.cls-1{fill:#73b2d9;}.cls-2{fill:#fff;stroke:#fff;stroke-miterlimit:10;stroke-width:18px;}</style></defs><g id="Layer_1" data-name="Layer 1"><rect class="cls-1" width="600" height="600"/></g><g id="Layer_2" data-name="Layer 2"><g id="Layer_2-2" data-name="Layer 2"><g id="Layer_1-2" data-name="Layer 1-2"><path class="cls-2" d="M435.7,303.1c0-55.1-60.8-99.8-135.7-99.8S164.3,248,164.3,303.1V479.5H435.6V303.1ZM300,209.5c70.3,0,127.2,41.9,127.2,93.6s-57,93.6-127.2,93.6-127.2-41.9-127.2-93.6S229.7,209.5,300,209.5ZM172.8,473.3V337.7c18.2,36.2,64.1,62.4,118.8,64.9v70.6Zm127.2,0V402.9c58.4,0,108.1-27.1,127.3-65.1V473.4H300Z"/></g></g><g id="Layer_2-3" data-name="Layer 2"><g id="Layer_1-2-2" data-name="Layer 1-2"><path class="cls-2" d="M164.3,296.9c0,55.1,60.8,99.8,135.7,99.8S435.7,352,435.7,296.9V120.5H164.4V296.9ZM300,390.5c-70.3,0-127.2-41.9-127.2-93.6s57-93.6,127.2-93.6,127.2,41.9,127.2,93.6S370.3,390.5,300,390.5ZM427.2,126.7V262.3c-18.2-36.2-64.1-62.4-118.8-64.9V126.8Zm-127.2,0v70.4c-58.4,0-108.1,27.1-127.3,65.1V126.6H300Z"/></g></g></g></svg>